<svg width="512" height="512" viewBox="0 0 512 512" fill="none" xmlns="http://www.w3.org/2000/svg">
<g clip-path="url(#clip0_1374_6)">
<path d="M287.231 65.2015C292.357 56.732 298.43 47.6892 307.942 44.9237C318.958 41.7211 330.274 48.0832 339.872 54.3613C368.577 73.1372 396.22 93.4849 422.674 115.311L422.645 115.64C402.049 114.221 381.453 112.802 360.857 111.383C345.976 110.358 330.584 109.191 317.434 102.158C312.444 99.4896 307.58 95.9248 301.925 95.6764C294.9 95.3678 288.774 100.27 283.96 105.391C255.484 135.685 247.244 182.012 215.296 208.628C235.441 158.994 259.495 111.035 287.231 65.2015Z" fill="white"/>
<path d="M112.193 322.152C115.342 318.179 116.629 317.249 119.735 313.24C145.027 280.56 168.799 246.776 191.052 211.888C206.167 188.193 220.532 164.044 234.148 139.439C240.63 127.742 246.935 115.953 253.062 104.072C257.816 94.8598 262.464 85.5926 267.006 76.2702C268.305 73.6076 269.567 70.9327 270.823 68.2517C273.783 61.947 276.687 55.6117 279.805 49.3928C283.359 42.3046 287.684 34.8737 294.21 30.1115C297.179 27.8553 300.73 26.4902 304.448 26.1757C309.76 25.8329 314.661 28.0243 319.268 30.4176C352.978 47.9788 384.538 69.9962 413.083 95.0495C441.701 120.159 467.28 148.527 489.301 179.575C489.974 180.536 491.567 179.618 490.887 178.651C488.21 174.868 485.479 171.126 482.696 167.425C459.595 136.71 432.954 108.82 403.323 84.3316C388.652 72.205 373.291 60.9377 357.316 50.5864C349.186 45.3223 340.902 40.3051 332.466 35.5347C328.214 33.1292 323.943 30.7542 319.599 28.5262C315.341 26.341 310.82 24.3761 305.955 24.3027C289.4 24.0456 280.828 42.7759 274.941 55.3791C273.09 59.3456 271.218 63.2997 269.322 67.2417C262.16 82.2076 254.722 97.0368 247.009 111.729C242.248 120.801 237.383 129.819 232.414 138.784C216.95 166.702 200.514 194.055 183.105 220.843C160.044 256.326 137.166 287.672 110.894 320.854C110.171 321.772 111.464 323.082 112.193 322.152Z" fill="white"/>
<path d="M203.818 173.207L179.154 164.195L166.907 159.72C162.919 158.263 158.94 156.603 154.817 155.56C151.172 154.637 147.468 154.486 143.874 155.699C140.703 156.872 137.801 158.669 135.339 160.985C132.824 163.299 130.484 165.795 128.338 168.454C125.672 171.656 123.045 174.89 120.407 178.114C109.517 191.42 98.6978 204.783 87.9502 218.204C77.2028 231.625 66.5273 245.102 55.9237 258.637C45.2941 272.205 34.7377 285.83 24.2543 299.511C22.9701 301.187 21.6869 302.864 20.4049 304.541C19.6966 305.468 18.0995 304.555 18.8178 303.615C29.3785 289.796 40.0128 276.033 50.7208 262.328C61.455 248.589 72.2635 234.909 83.1461 221.287C94.0284 207.665 104.984 194.102 116.014 180.599C118.762 177.235 121.514 173.874 124.271 170.517C126.596 167.686 128.896 164.824 131.446 162.188C136.128 157.351 141.978 153.076 148.98 152.96C153.096 152.891 157.08 154.196 160.905 155.579C165.029 157.069 169.142 158.587 173.26 160.092L198.098 169.168L204.307 171.437C205.409 171.839 204.933 173.615 203.818 173.207Z" fill="white"/>
<path d="M136.268 173.297C138.696 170.345 141.321 167.253 144.952 166.054L148.343 166.188C122.533 211.751 87.6752 251.564 45.9087 283.183C76.0284 246.554 106.148 209.926 136.268 173.297Z" fill="white"/>
<path d="M301.145 126.124C301.147 130.78 300.004 135.365 297.818 139.477C295.632 143.589 292.469 147.101 288.607 149.707C284.745 152.312 280.302 153.931 275.668 154.42C271.033 154.909 266.349 154.255 262.027 152.514C257.705 150.772 253.877 147.998 250.879 144.433C247.881 140.869 245.805 136.624 244.832 132.071C243.859 127.518 244.02 122.795 245.301 118.319C246.582 113.842 248.943 109.748 252.177 106.396C252.222 106.351 252.268 106.305 252.313 106.26C252.541 106.021 252.769 105.782 253.008 105.554C253.01 105.554 253.011 105.554 253.012 105.553C253.014 105.553 253.015 105.552 253.016 105.551C253.017 105.55 253.018 105.549 253.019 105.547C253.019 105.546 253.019 105.544 253.019 105.543C253.315 105.27 253.612 104.997 253.919 104.735C258.033 101.132 263.099 98.7894 268.511 97.9884C273.923 97.1873 279.451 97.9616 284.434 100.218C289.417 102.475 293.644 106.119 296.607 110.713C299.571 115.308 301.146 120.658 301.145 126.124Z" fill="#2F2E41"/>
<path d="M282.542 149.57C291.865 140.256 291.865 125.154 282.542 115.84C273.219 106.526 258.103 106.526 248.78 115.84C239.457 125.154 239.457 140.256 248.78 149.57C258.103 158.884 273.219 158.884 282.542 149.57Z" fill="#9E616A"/>
<path d="M282.719 109.769C279.021 106.311 274.421 103.966 269.448 103.004C264.475 102.041 259.331 102.499 254.608 104.326C254.468 104.38 254.328 104.441 254.188 104.508C254.182 104.508 254.182 104.514 254.176 104.514C253.72 104.702 253.258 104.897 252.814 105.109L252.54 105.243V105.28C252.492 105.316 252.437 105.358 252.382 105.395C252.27 105.499 252.135 105.574 251.987 105.614C247.396 105.674 243.656 107.23 240.883 110.237C237.18 114.246 235.441 120.728 235.976 128.492L235.988 128.729L236.195 128.863C238.153 130.084 240.008 131.159 241.796 132.101C242.854 132.666 243.881 133.182 244.903 133.656C245.024 133.71 245.146 133.771 245.268 133.826C255.605 138.595 265.061 139.457 274.145 136.438L274.315 136.383L278.177 129.92C278.575 132.128 279.638 134.162 281.224 135.751C282.811 137.339 284.845 138.405 287.055 138.807L288.66 139.093L291.013 139.506L291.111 139.063C293.446 128.553 290.071 116.786 282.719 109.769Z" fill="#2F2E41"/>
<path d="M341.366 159.828C333.242 155.638 343.691 140.434 341.591 131.545C339.491 122.655 324.372 119.796 323.409 110.713C322.446 101.63 320.18 92.2624 314.181 85.3703C310.347 80.9662 304.699 77.715 298.883 78.2666C296.915 78.4533 295.011 79.0614 293.3 80.0496C291.588 81.0379 290.11 82.3829 288.966 83.9933C287.822 85.6036 287.039 87.4414 286.67 89.3814C286.301 91.3214 286.355 93.318 286.828 95.2354C285.172 92.8914 280.887 93.3994 279.826 96.0656C278.883 98.4359 280.966 101.307 283.418 101.517C286.626 105.475 290.299 109.675 295.325 110.474C296.944 110.731 298.764 110.542 299.946 109.408C301.129 108.274 301.221 106.006 299.818 105.158C306.134 107.664 309.837 114.487 310.774 121.212C311.711 127.936 310.415 134.74 309.56 141.476C308.706 148.212 308.338 155.298 310.981 161.553C314.105 168.943 321.296 174.24 329.143 175.938C336.991 177.637 345.349 175.977 352.452 172.236C359.556 168.496 365.479 162.786 370.318 156.384C361.983 162.297 350.451 164.512 341.366 159.828Z" fill="#2F2E41"/>
<path d="M249.064 260.011L232.574 372.507L322.587 365.729L295.645 255.06L249.064 260.011Z" fill="#FFB8B8"/>
<path d="M343.228 495.239C343.148 495.627 343.047 496.01 342.924 496.387C332.536 500.139 321.913 503.206 311.122 505.567C308.848 498.094 304.488 483.946 300.669 472.373C297.55 462.926 294.795 455.199 293.834 454.233C291.165 451.578 293.834 448.036 293.834 448.036L282.433 412.625L277.252 396.539L275.477 430.334L272.898 479.286L272.825 480.659C272.825 480.659 269.274 491.284 271.05 493.058C272.825 494.832 269.274 501.922 269.274 501.922L268.253 511.222C266.951 511.289 265.656 511.338 264.349 511.374L263.905 511.514L263.54 511.399C261.783 511.453 260.019 511.488 258.25 511.502C257.502 511.508 256.754 511.514 256 511.514C255.647 511.514 255.295 511.514 254.942 511.508C249.84 511.49 244.777 511.324 239.752 511.01L236.633 485.647L233.41 459.439C233.41 459.439 236.955 452.362 233.41 448.82C231.276 446.688 232.346 443.59 233.544 441.463C232.802 438.177 231.786 433.122 230.418 425.638C230.369 425.389 230.327 425.134 230.278 424.879C229.847 422.503 229.459 420.174 229.117 417.892C228.509 413.877 228.034 410.019 227.67 406.326C226.432 394.362 226.261 382.313 227.159 370.319C227.499 366.054 227.925 362.932 228.205 361.128C228.229 360.958 228.491 360.004 228.916 358.497C229.585 356.085 230.686 352.258 231.92 347.975C232.577 345.703 233.27 343.304 233.957 340.916C235.155 336.779 236.347 332.679 237.308 329.362V329.343C238.153 326.433 238.828 324.137 239.181 322.934C239.351 322.345 239.442 322.023 239.442 322.023C239.442 322.023 239.63 321.98 239.989 321.901C241.102 321.646 243.851 321.033 247.657 320.213C251.628 319.374 256.742 318.311 262.36 317.23C267.17 316.306 272.351 315.365 277.501 314.52C279.35 314.223 281.199 313.931 283.023 313.658C294.29 311.981 304.634 311.027 309.535 312.115C309.874 312.187 310.209 312.278 310.538 312.388C310.871 312.498 311.191 312.643 311.493 312.819C311.645 312.911 313.116 318.645 314.995 326.118C315.014 326.19 315.032 326.269 315.05 326.342C315.616 328.602 316.218 331.008 316.832 333.468C317.458 335.977 318.091 338.535 318.711 341.026C320.553 348.425 322.256 355.271 323.132 358.625C323.466 359.925 323.685 360.696 323.734 360.781C325.789 364.202 327.467 372.585 328.829 383.101C330.045 392.487 331.012 403.574 331.76 414.345C332.131 419.672 332.447 424.927 332.715 429.86C333.621 446.457 333.986 459.415 333.986 459.415C333.986 459.415 335.342 470.216 338.035 475.313C338.367 475.971 338.791 476.579 339.294 477.117C341.088 478.91 341.295 480.465 341.058 481.57C340.954 482.092 340.738 482.586 340.425 483.016C340.354 483.122 340.275 483.221 340.188 483.314C339.956 484.413 339.997 485.552 340.306 486.632C340.616 487.712 341.185 488.7 341.964 489.51C343.684 491.242 343.545 493.72 343.228 495.239Z" fill="#2F2E41"/>
<path d="M313.743 223.93C313.639 223.165 313.53 222.393 313.414 221.616C313.348 221.117 313.269 220.619 313.196 220.127C312.423 215.158 315.64 210.905 311.475 207.467C310.501 206.675 309.707 205.685 309.146 204.563L308.191 202.643L306.434 199.083L302.591 191.344L301.928 190.013C301.74 189.636 301.525 189.272 301.283 188.926C300.565 187.884 299.629 187.009 298.541 186.362L288.994 180.676C287.519 179.802 286.331 178.516 285.577 176.977L285.34 176.491C284.288 174.334 282.403 169.176 280.171 166.935L280.165 166.929C279.679 166.373 279.019 165.998 278.292 165.865L268.788 164.924C267.268 164.769 265.734 165.013 264.336 165.629C262.939 166.246 261.726 167.215 260.816 168.441L260.554 169.626L259.028 176.57L258.943 176.588C258.493 176.691 258.043 176.794 257.599 176.922C247.742 179.613 243.632 214.04 243.632 214.04C243.632 214.04 236.73 225.419 239.442 232.459L244.282 243.814C244.32 243.9 244.348 243.989 244.368 244.081C244.805 245.317 244.959 246.635 244.818 247.939L244.824 248.382L244.836 249.36L244.872 251.869L244.988 260.192L245.134 270.61L245.261 279.486L245.304 281.849L237.332 316.507C237.202 317.646 237.297 318.799 237.613 319.901C237.929 321.003 238.46 322.031 239.175 322.928L239.181 322.934C239.356 323.158 239.542 323.373 239.74 323.578L239.746 323.584C239.935 323.779 240.129 323.955 240.33 324.131C241.29 324.97 242.422 325.589 243.647 325.945C244.872 326.301 246.159 326.384 247.42 326.19L248.484 326.026H248.49L263.935 323.712H263.948L265.735 323.445H265.747L283.035 320.851H283.047L286.009 320.401C286.246 320.371 286.477 320.34 286.714 320.322L302.542 319.235C302.905 319.21 303.267 319.163 303.624 319.095H303.631C305.022 318.82 306.327 318.214 307.435 317.329C308.543 316.444 309.422 315.306 309.997 314.01C310.236 313.491 310.418 312.947 310.538 312.388C310.676 311.784 310.751 311.167 310.763 310.547L310.94 295.652L311.542 247.513C311.554 245.907 312.013 244.336 312.867 242.975C315.062 239.476 314.813 231.98 313.743 223.93Z" fill="#E56822"/>
<path d="M287.204 352.497C286.982 351.269 287.031 350.008 287.349 348.801C287.667 347.595 288.247 346.473 289.046 345.514C289.845 344.555 290.845 343.783 291.975 343.252C293.105 342.722 294.338 342.445 295.587 342.441L305.462 313.762L315.09 326.247L304.237 351.567C304.103 353.663 303.205 355.638 301.712 357.117C300.218 358.595 298.234 359.476 296.134 359.59C294.035 359.705 291.966 359.046 290.32 357.739C288.674 356.432 287.566 354.567 287.204 352.497Z" fill="#9E616A"/>
<path d="M324.883 292.158L322.663 297.747L319.562 332.32C318.599 332.562 317.678 332.949 316.832 333.468C314.993 334.604 313.593 336.328 312.859 338.36C312.125 340.391 312.1 342.611 312.788 344.658L313.7 347.392L306.92 345.308L295.774 341.888L282.634 337.854L284.859 330.643C285.374 328.987 285.479 327.23 285.163 325.524C284.847 323.818 284.121 322.214 283.047 320.85C282.781 320.511 282.495 320.189 282.19 319.885L283.023 313.658L283.516 309.958L277.502 314.52L265.741 323.445H265.735L264.179 324.629C264.179 324.629 264.094 324.313 263.935 323.712C263.638 322.552 263.078 320.328 262.361 317.23C258.807 301.791 256.19 286.152 254.522 270.398C254.158 266.85 253.841 263.217 253.586 259.53C253.325 255.733 253.13 251.881 253.027 248.005C252.151 216.458 257.003 183.386 277.283 166.473C278.263 166.48 279.237 166.635 280.171 166.935C288.38 169.456 297.386 181.776 303.612 190.591C305.084 192.674 306.397 194.558 307.51 196.07L310.204 199.733C313.882 204.739 316.428 210.482 317.665 216.567C317.927 217.855 318.131 219.159 318.279 220.48L321.222 247.525V254.493L324.883 292.158Z" fill="#E56822"/>
<path d="M14.8306 340.641C20.1131 346.895 25.8267 352.771 31.9297 358.228L480.434 358.836C486.537 353.379 492.251 347.502 497.533 341.249L14.8306 340.641Z" fill="#CCCCCC"/>
<path d="M258.25 511.502C257.502 511.508 256.754 511.514 256 511.514C255.647 511.514 255.295 511.514 254.942 511.508C249.84 511.49 244.777 511.324 239.752 511.01L239.874 512L239.442 510.991L229.804 488.575L236.633 485.647L249.159 480.27L252.96 493.325L256.596 505.828L257.678 509.534L258.25 511.502Z" fill="#FFB6B6"/>
<path d="M213.599 485.477L210.874 507.547C204.678 506.454 198.563 505.135 192.529 503.592V485.483L213.599 485.477Z" fill="#FFB6B6"/>
<path d="M117.529 444.798V470.903C113.832 468.527 110.204 466.057 106.645 463.491V444.798H117.529Z" fill="#CACACA"/>
<path d="M159.699 440.449V453.492C159.698 455.894 158.743 458.198 157.043 459.898C155.343 461.597 153.038 462.553 150.633 462.556H105.343C96.6973 456.258 88.4539 449.427 80.6614 442.101C76.9704 438.638 73.3868 435.066 69.9106 431.385H150.633C153.037 431.388 155.343 432.344 157.042 434.044C158.742 435.743 159.698 438.046 159.699 440.449Z" fill="#3F3D56"/>
<path d="M265.839 510.9L264.349 511.374L263.905 511.514L263.54 511.399C261.783 511.453 260.02 511.488 258.25 511.502C257.502 511.508 256.754 511.514 256 511.514C255.648 511.514 255.295 511.514 254.942 511.508C249.84 511.49 244.777 511.324 239.752 511.01L239.874 512L239.442 510.992C237.642 510.87 235.849 510.742 234.061 510.585L219.911 486.91L190.79 438.195L187.415 432.551C187.415 432.551 175.904 435.953 159.614 439.216C147.337 441.682 132.348 444.057 117.529 444.835C113.875 445.029 110.232 445.127 106.645 445.096C97.3714 445.035 88.4631 444.167 80.6615 442.101C76.9704 438.638 73.3869 435.066 69.9107 431.385C63.9849 425.125 58.3794 418.57 53.1156 411.744C53.0447 409.239 53.1728 406.733 53.4987 404.248C53.5534 403.835 53.6082 403.416 53.675 402.99L55.3351 374.827L67.6669 373.199L86.4321 370.72L106.76 368.035L108.998 385.543C108.998 385.543 124.826 384.741 144.88 385.008C177.09 385.446 220.191 388.653 226.028 402.419C226.575 403.713 227.123 405.019 227.67 406.326C239.004 433.45 249.415 462.349 256.487 482.883C257.837 486.795 259.059 490.397 260.147 493.629C263.741 504.303 265.839 510.9 265.839 510.9Z" fill="#2F2E41"/>
<path d="M231.361 417.941C231.063 420.517 230.748 423.082 230.418 425.638C227.499 448.243 223.48 469.833 219.91 486.91C218.165 495.245 216.523 502.499 215.167 508.276C213.732 508.051 212.301 507.808 210.874 507.547C204.678 506.454 198.563 505.135 192.529 503.592C190.735 503.137 188.951 502.661 187.178 502.165L190.79 438.195L191.982 417.036L229.117 417.892L231.361 417.941Z" fill="#2F2E41"/>
<path d="M291.071 318.997C292.619 318.133 294.338 317.619 296.107 317.49C297.876 317.362 299.652 317.622 301.309 318.254C302.967 318.885 304.465 319.872 305.699 321.145C306.934 322.417 307.874 323.945 308.453 325.619L351.567 325.67L339.211 344.342L300.163 341.431C297.283 342.217 294.214 341.92 291.537 340.596C288.861 339.272 286.764 337.014 285.643 334.249C284.522 331.484 284.456 328.404 285.456 325.593C286.456 322.782 288.454 320.435 291.071 318.997Z" fill="#FFB6B6"/>
<path d="M314.577 344.248L392.226 351.954L392.431 351.693C392.823 351.192 431.692 301.485 438.222 289.652C442.24 282.543 443.704 274.275 442.369 266.221L442.325 266.024L442.17 265.893C439.003 263.242 435.027 261.748 430.896 261.657C426.765 261.567 422.727 262.885 419.447 265.395C403.676 277.598 390.959 293.297 382.301 311.251L377.388 321.47L320.405 323.912L314.577 344.248Z" fill="#E56822"/>
<path d="M284.628 484.322L273.184 510.943C271.542 511.058 269.899 511.152 268.253 511.222C266.951 511.289 265.656 511.338 264.349 511.374L263.905 511.514L263.54 511.399C261.783 511.453 260.019 511.488 258.25 511.502C257.502 511.508 256.754 511.514 256 511.514C255.647 511.514 255.295 511.514 254.942 511.508L255.702 508.908L256.596 505.828L260.147 493.629L265.273 476.018L272.898 479.286L284.628 484.322Z" fill="#FFB6B6"/>
<path d="M367.089 486.242C361.209 489.079 355.21 491.689 349.09 494.073L343.107 484.019L362.395 475.556L367.089 486.242Z" fill="#FFB6B6"/>
<path d="M407.788 440.546V461.723C404.231 464.348 400.602 466.879 396.903 469.317V440.546H407.788Z" fill="#CACACA"/>
<path d="M446.024 427.132C442.965 430.522 439.815 433.825 436.574 437.041C428.946 444.63 420.847 451.732 412.324 458.303H363.8C362.512 458.303 361.238 458.029 360.065 457.498C358.891 456.966 357.845 456.191 356.995 455.223L356.989 455.205C355.978 454.064 355.274 452.684 354.946 451.195L354.94 451.183C354.803 450.544 354.734 449.893 354.733 449.239V436.196C354.735 433.794 355.691 431.49 357.39 429.791C359.09 428.092 361.395 427.136 363.8 427.132H446.024Z" fill="#3F3D56"/>
<path d="M466.017 376.224L460.758 398.738C461.272 402 461.443 405.306 461.268 408.604C458.775 411.945 456.203 415.219 453.552 418.427C451.107 421.385 448.598 424.287 446.024 427.132C442.965 430.522 439.815 433.825 436.574 437.041C428.134 439.689 418.186 440.771 407.788 440.844C404.2 440.874 400.558 440.777 396.903 440.582C382.085 439.805 367.096 437.429 354.819 434.963C351.571 434.319 348.519 433.663 345.71 433.025C340.389 431.828 335.938 430.711 332.715 429.86C329.085 428.912 327.017 428.299 327.017 428.299L313.208 451.402L300.669 472.373L277.824 510.591C276.279 510.73 274.733 510.848 273.184 510.943C271.543 511.058 269.899 511.151 268.253 511.222C266.952 511.289 265.656 511.338 264.349 511.374L263.905 511.514L263.54 511.399L257.678 509.534L255.702 508.908L248.594 506.648C248.594 506.648 250.181 501.654 252.96 493.325C253.981 490.27 255.161 486.758 256.487 482.883C261.272 468.874 267.906 450.059 275.477 430.334C277.721 424.478 280.043 418.536 282.433 412.625C284.391 407.771 286.386 402.936 288.404 398.167C291.913 389.899 308.866 385.44 328.829 383.101C329.845 382.985 330.866 382.87 331.894 382.761C342.067 381.691 352.861 381.139 362.955 380.883C368.008 380.756 372.884 380.707 377.421 380.701C378.886 380.701 380.311 380.705 381.695 380.713H381.702C385.441 380.732 388.883 380.786 391.911 380.847C392.501 380.859 393.073 380.877 393.632 380.89H393.638C394.015 380.896 394.386 380.908 394.751 380.914C401.373 381.084 405.435 381.291 405.435 381.291L407.01 368.946L407.332 366.455L407.636 364.086V364.08L407.672 363.782L407.922 363.776L412.3 363.691L449.101 362.974L469.204 362.58L466.017 376.224Z" fill="#2F2E41"/>
<path d="M371.626 483.994C370.124 484.76 368.61 485.513 367.089 486.242C361.209 489.079 355.21 491.689 349.09 494.073C347.345 494.759 345.594 495.421 343.824 496.059C343.63 495.786 343.429 495.512 343.229 495.239C334.788 483.666 324.062 468.394 313.208 451.402C308.666 444.294 304.099 436.883 299.666 429.313L331.76 414.345L335.36 412.668L345.71 433.025L354.94 451.183L356.995 455.223L371.626 483.994Z" fill="#2F2E41"/>
<path d="M418.212 230.881C434.541 230.881 447.779 217.655 447.779 201.341C447.779 185.026 434.541 171.801 418.212 171.801C401.882 171.801 388.644 185.026 388.644 201.341C388.644 217.655 401.882 230.881 418.212 230.881Z" fill="#FFB6B6"/>
<path d="M417.234 229.598C424.147 232.912 432.655 231.79 439.256 227.891C445.856 223.992 450.713 217.634 454.107 210.765C456.593 205.734 458.399 199.973 456.959 194.551C455.52 189.128 449.777 184.584 444.397 186.19C448.083 183.225 447.653 177.11 444.674 173.436C441.696 169.762 436.996 167.995 432.455 166.663C425.865 164.731 418.94 163.367 412.143 164.355C405.347 165.344 398.655 169.02 395.457 175.092C393.237 175.664 390.89 175.484 388.783 174.58C386.677 173.676 384.93 172.1 383.816 170.098C383.075 172.022 382.99 174.137 383.573 176.115C384.157 178.092 385.376 179.823 387.043 181.039L377.838 176.049C375.491 179.299 377.624 184.255 381.186 186.096C384.749 187.937 389.055 187.446 392.943 186.462C396.831 185.478 392.244 193.682 396.254 193.761C400.264 193.84 404.601 195.936 405.749 199.776C406.351 201.786 406 203.946 406.178 206.037C406.355 208.128 407.358 210.448 409.387 210.993C410.669 211.337 412.071 210.881 413.342 211.263C414.917 211.737 415.878 213.421 416.016 215.059C416.155 216.697 415.641 218.312 415.133 219.876C413.127 226.055 419.566 222.592 417.56 228.771L417.234 229.598Z" fill="#2F2E41"/>
<path d="M475.248 316.853C475.005 292.456 473.898 275.829 471.964 267.427C466.771 244.84 442.783 240.721 439.025 240.211C438.625 239.147 438.009 238.176 437.218 237.359C436.426 236.542 435.474 235.897 434.421 235.463C433.369 235.029 432.239 234.817 431.101 234.838C429.963 234.86 428.841 235.115 427.806 235.588L410.762 243.388C407.304 244.976 404.21 247.256 401.671 250.088C399.132 252.92 397.203 256.244 396.004 259.852L393.474 267.567L392.203 319.344L396.399 341.123L396.405 341.135L399.233 355.806L397.287 358.722L386.177 375.367L385.989 375.659L385.983 375.665L385.496 376.388C386.171 376.759 386.84 377.123 387.497 377.488C389.199 378.423 390.859 379.341 392.477 380.24C392.866 380.458 393.249 380.671 393.632 380.89H393.638C393.881 381.023 394.125 381.157 394.362 381.291C400.43 384.68 405.954 387.821 410.932 390.713C411.625 391.114 412.312 391.515 412.987 391.91C435.972 405.341 447.623 413.567 453.552 418.427C456.203 415.219 458.775 411.945 461.268 408.604C463.53 405.584 465.722 402.513 467.842 399.388C468.213 396.946 468.462 394.504 468.705 392.11C468.997 389.231 469.301 386.248 469.812 383.314C470.037 382.014 469.173 380.78 468.34 379.59C467.568 378.478 466.838 377.433 466.99 376.449C467.149 375.434 468.267 374.329 469.356 373.253C470.542 372.075 471.77 370.86 471.946 369.578C472.433 366.006 472.864 362.422 473.241 358.825C473.862 352.975 474.338 347.107 474.67 341.22C475.139 333.092 475.331 324.969 475.248 316.853Z" fill="#E56822"/>
<path d="M362.694 402.972C363.196 401.272 364.064 399.703 365.238 398.375C366.412 397.046 367.863 395.991 369.489 395.284C371.115 394.576 372.877 394.234 374.65 394.28C376.423 394.327 378.164 394.761 379.751 395.552L410.589 365.451L414.838 387.428L384.902 412.643C383.395 415.219 380.994 417.152 378.155 418.077C375.316 419.002 372.236 418.855 369.499 417.662C366.761 416.47 364.557 414.316 363.303 411.609C362.049 408.901 361.832 405.828 362.694 402.972Z" fill="#FFB6B6"/>
<path d="M397.172 404.581L458.046 355.807L458.009 355.477C457.938 354.846 450.895 292.162 447.274 279.144C445.165 271.256 440.42 264.326 433.826 259.504L433.656 259.395L433.454 259.409C429.335 259.729 425.447 261.441 422.433 264.264C419.418 267.087 417.457 270.852 416.871 274.938C414.15 294.681 416.059 314.786 422.448 333.665L426.095 344.401L387.094 385.978L397.172 404.581Z" fill="#E56822"/>
<path d="M85.4435 230.351C100.015 230.351 111.827 218.55 111.827 203.992C111.827 189.435 100.015 177.634 85.4435 177.634C70.8723 177.634 59.0601 189.435 59.0601 203.992C59.0601 218.55 70.8723 230.351 85.4435 230.351Z" fill="#A0616A"/>
<path d="M49.9966 404.755L49.8527 404.553C42.1671 393.803 53.7262 367.972 55.4696 364.227C53.3994 363.556 51.626 362.189 50.4516 360.358C49.2772 358.527 48.7743 356.347 49.0286 354.187L49.7801 347.805L50.5635 341.544L44.9513 335.938L44.9356 335.798L41.7059 307.565L37.01 288.813C35.2406 281.724 35.3914 274.292 37.4469 267.28C39.5023 260.269 43.3884 253.93 48.7062 248.915L59.5608 247.193L72.7524 234.495H94.0254L101.319 241.457C115.66 253.201 119.064 248.099 135.235 270.206L123.657 300.681L130.128 345.629L130.132 353.763L133.503 357.505C134.717 358.854 135.599 360.466 136.079 362.215C136.559 363.964 136.624 365.801 136.268 367.579L135.825 369.793C137.538 370.527 139.05 371.66 140.234 373.098C141.419 374.536 142.241 376.236 142.631 378.057L143.815 383.576C144.828 384.912 151.513 393.817 151.513 396.252C151.513 396.617 151.243 396.97 150.664 397.362C146.108 400.444 120.926 406.728 109.781 402.272C97.9092 397.53 50.7173 404.644 50.2418 404.717L49.9966 404.755Z" fill="#3F3D56"/>
<path d="M36.5933 297.832L58.5305 293.542C66.6433 305.646 70.9988 338.744 70.9988 338.744L95.2528 388.996C96.7436 389.9 97.9677 391.184 98.8005 392.715C99.6333 394.246 100.045 395.971 99.9938 397.712C99.9425 399.454 99.43 401.152 98.5086 402.631C97.5871 404.111 96.2896 405.32 94.7481 406.136C93.2067 406.951 91.4764 407.344 89.7335 407.275C87.9906 407.205 86.2973 406.675 84.8261 405.739C83.355 404.802 82.1585 403.493 81.3585 401.945C80.5585 400.396 80.1836 398.663 80.2719 396.923L48.6385 337.384L36.5933 297.832Z" fill="#A0616A"/>
<path d="M36.4704 303.032L35.8467 270.458L46.1702 256.66C48.2068 253.958 50.9591 251.88 54.116 250.659C57.2729 249.438 60.7087 249.124 64.035 249.752C68.5382 250.633 72.5386 253.19 75.2271 256.905C77.9157 260.62 79.0919 265.217 78.5178 269.765C76.7656 283.558 72.7874 300.82 63.7872 304.725L63.6959 304.765L73.0239 337.356L38.4317 342.184L36.4704 303.032Z" fill="#3F3D56"/>
<path d="M166.758 300.153C166.758 300.153 140.432 279.595 126.154 276.642L113.516 295.063L147.694 315.988L214.237 335.21C215.402 336.503 216.889 337.465 218.546 337.998C220.204 338.531 221.973 338.617 223.675 338.246C225.376 337.875 226.949 337.061 228.234 335.887C229.519 334.712 230.469 333.219 230.99 331.559C231.51 329.898 231.581 328.13 231.196 326.433C230.812 324.736 229.984 323.172 228.798 321.898C227.612 320.624 226.11 319.686 224.444 319.179C222.778 318.673 221.007 318.616 219.312 319.014L166.758 300.153Z" fill="#A0616A"/>
<path d="M120.441 304.285L93.0051 286.673L87.2762 270.425C86.1631 267.231 85.9664 263.79 86.7082 260.49C87.4501 257.191 89.1009 254.164 91.4742 251.753C94.7133 248.505 99.0659 246.608 103.652 246.444C108.238 246.28 112.715 247.862 116.178 250.87C126.673 260.001 140.198 263.061 138.437 272.705L143.49 273.442L169.329 293.047L154.092 324.447L120.441 304.285Z" fill="#3F3D56"/>
<path d="M55.5172 186.673C58.4798 182.094 64.0392 179.042 69.4287 179.9C69.9303 176.464 71.366 173.231 73.5794 170.553C75.7927 167.876 78.699 165.856 81.9816 164.715C85.2643 163.573 88.7975 163.353 92.1967 164.079C95.5958 164.804 98.7306 166.448 101.26 168.83C102.846 167.568 105.153 167.502 107.037 168.252C108.892 169.095 110.505 170.389 111.73 172.016C114.823 175.869 116.812 180.488 117.485 185.38C118.159 190.273 117.492 195.257 115.555 199.801C116.214 197.408 113.814 195.158 111.39 194.621C108.965 194.084 106.422 194.592 103.963 194.242C100.812 193.794 97.9793 191.968 94.8231 191.557C92.1705 191.212 89.503 191.891 86.9163 192.572C84.3296 193.253 81.669 193.948 79.0127 193.633C76.3562 193.317 72.9344 203.375 72.9803 210.459C72.9891 211.801 72.7123 213.525 71.3991 213.81C69.7819 214.161 68.8448 211.931 67.3056 211.323C65.9342 210.782 64.2902 211.785 63.8127 213.179C63.6188 213.891 63.598 214.64 63.7522 215.363C63.9063 216.085 64.231 216.76 64.6991 217.332C65.6453 218.466 66.7685 219.439 68.0253 220.215L67.3914 220.742C66.3369 222.133 64.1496 222.194 62.6296 221.333C61.1099 220.472 60.1111 218.94 59.2108 217.443C56.3988 212.771 53.9322 207.792 52.9399 202.431C51.9475 197.07 52.5549 191.252 55.5172 186.673Z" fill="#2F2E41"/>
<path opacity="0.2" d="M287.216 230.969C289.892 242.108 291.127 253.544 290.89 264.997C290.662 276.452 288.985 287.831 285.899 298.865C284.158 305.096 281.962 311.191 279.328 317.102C278.854 318.164 280.425 319.092 280.903 318.021C285.658 307.372 289.021 296.155 290.908 284.648C292.802 273.137 293.227 261.434 292.172 249.817C291.575 243.304 290.506 236.843 288.975 230.485C288.7 229.345 286.941 229.827 287.216 230.969Z" fill="black"/>
<path opacity="0.2" d="M457.533 308.915L442.284 346.104C439.83 352.09 437.449 358.111 434.894 364.055C432.595 369.406 429.972 374.781 426.102 379.193C422.195 383.646 416.939 387.261 410.935 387.967C409.784 388.103 409.77 389.927 410.935 389.79C416.42 389.145 421.335 386.421 425.305 382.654C429.598 378.58 432.623 373.392 435.093 368.067C437.845 362.132 440.186 355.995 442.667 349.944L450.464 330.93L459.292 309.399C459.737 308.314 457.973 307.842 457.533 308.915Z" fill="black"/>
<path d="M276.772 342.67C277.04 343.45 277.548 344.124 278.223 344.597C278.899 345.07 279.707 345.316 280.532 345.302L296.641 344.887C297.471 344.871 298.274 344.587 298.93 344.077C299.585 343.567 300.058 342.859 300.277 342.058L302.557 317.705C303.366 318.071 304.246 318.252 305.134 318.234C305.905 318.215 306.665 318.044 307.37 317.731C308.075 317.419 308.712 316.97 309.244 316.412C309.775 315.853 310.192 315.195 310.469 314.476C310.746 313.757 310.879 312.99 310.86 312.22C310.84 311.449 310.669 310.69 310.356 309.985C310.043 309.281 309.594 308.645 309.035 308.114C308.476 307.583 307.818 307.167 307.098 306.89C306.378 306.613 305.61 306.48 304.839 306.499C304.484 306.498 304.13 306.535 303.783 306.609C303.406 306.201 302.947 305.877 302.437 305.657C301.926 305.437 301.376 305.326 300.82 305.332L276.04 305.971C275.835 305.978 275.63 306.004 275.429 306.047C274.886 306.148 274.37 306.364 273.917 306.681C273.465 306.998 273.085 307.408 272.804 307.884C272.524 308.36 272.348 308.89 272.29 309.439C272.231 309.988 272.291 310.543 272.466 311.067L276.772 342.67ZM303.024 316.052L304.647 310.248C304.831 309.578 304.835 308.871 304.659 308.198C304.738 308.198 304.807 308.161 304.886 308.161C305.998 308.138 307.074 308.556 307.878 309.325C308.682 310.093 309.148 311.149 309.174 312.26C309.2 313.371 308.784 314.447 308.017 315.252C307.25 316.057 306.195 316.526 305.083 316.555C304.364 316.577 303.652 316.403 303.024 316.052Z" fill="#2F2E41"/>
<path d="M275.429 306.047C275.957 309.062 281.892 311.182 289.029 310.814C295.592 310.512 300.958 308.21 301.941 305.481C301.577 305.374 301.199 305.323 300.82 305.332L276.04 305.971C275.835 305.978 275.63 306.004 275.429 306.047Z" fill="#3F3D56"/>
<path d="M223.116 309.853C223.291 309.328 223.351 308.773 223.292 308.224C223.234 307.675 223.058 307.145 222.778 306.669C222.497 306.193 222.117 305.783 221.665 305.466C221.212 305.149 220.697 304.933 220.153 304.832C219.952 304.789 219.747 304.764 219.542 304.756L194.762 304.117C194.207 304.111 193.656 304.222 193.145 304.442C192.635 304.662 192.176 304.986 191.799 305.394C191.452 305.32 191.098 305.283 190.743 305.285C189.185 305.245 187.676 305.826 186.547 306.899C185.418 307.972 184.762 309.449 184.723 311.005C184.683 312.561 185.265 314.069 186.338 315.197C187.412 316.325 188.891 316.98 190.448 317.019C191.336 317.037 192.216 316.856 193.025 316.49L195.305 340.843C195.524 341.644 195.997 342.352 196.652 342.862C197.308 343.372 198.111 343.656 198.942 343.672L215.051 344.087C215.875 344.101 216.683 343.855 217.359 343.382C218.034 342.909 218.542 342.235 218.81 341.456L223.116 309.853ZM190.499 315.34C189.387 315.311 188.332 314.842 187.565 314.037C186.798 313.232 186.382 312.156 186.408 311.045C186.434 309.934 186.9 308.878 187.704 308.11C188.508 307.341 189.584 306.923 190.696 306.946C190.775 306.946 190.844 306.983 190.923 306.983C190.747 307.656 190.751 308.363 190.935 309.034L192.558 314.837C191.93 315.188 191.219 315.362 190.499 315.34Z" fill="#2F2E41"/>
<path d="M220.153 304.832C219.625 307.847 213.689 309.967 206.553 309.599C199.99 309.297 194.624 306.995 193.641 304.266C194.004 304.159 194.383 304.108 194.762 304.117L219.542 304.756C219.747 304.763 219.952 304.789 220.153 304.832Z" fill="#3F3D56"/>
<path d="M196.669 251.93C197.911 251.024 199.336 250.401 200.845 250.105C202.353 249.809 203.908 249.847 205.401 250.216C206.893 250.585 208.286 251.277 209.482 252.242C210.678 253.207 211.647 254.423 212.322 255.803L249.423 251.319L240.756 268.681L206.853 270.278C204.458 271.256 201.786 271.323 199.344 270.465C196.902 269.608 194.86 267.885 193.604 265.623C192.349 263.362 191.968 260.719 192.533 258.195C193.098 255.671 194.569 253.442 196.669 251.93Z" fill="#9E616A"/>
<path d="M317.665 216.567C316.57 218.712 315.239 221.209 313.743 223.93C308.489 233.523 301.271 245.903 295.713 255.326C290.964 263.363 287.419 269.256 287.322 269.42L287.17 269.663L254.522 270.398L247.517 270.556L245.134 270.61L219.552 271.187L219.795 269.669L222.185 254.615L222.428 253.078L244.836 249.36L253.026 248.005L271.196 244.992L274.352 235.685C279.91 219.327 289.199 204.484 301.484 192.328C301.843 191.982 302.208 191.654 302.591 191.344C302.925 191.077 303.266 190.821 303.612 190.591C305.084 192.674 306.397 194.558 307.51 196.07L310.204 199.733C313.882 204.739 316.427 210.482 317.665 216.567Z" fill="#E56822"/>
<path d="M181.912 272.201C182.18 272.98 182.688 273.654 183.363 274.127C184.039 274.6 184.847 274.846 185.672 274.832L201.781 274.417C202.611 274.401 203.414 274.117 204.07 273.607C204.726 273.097 205.198 272.389 205.418 271.588L207.697 247.235C208.506 247.601 209.386 247.782 210.274 247.764C211.832 247.725 213.31 247.07 214.384 245.942C215.458 244.814 216.039 243.306 216 241.75C215.961 240.194 215.304 238.717 214.175 237.644C213.046 236.571 211.537 235.991 209.979 236.03C209.624 236.028 209.271 236.065 208.924 236.139C208.546 235.731 208.088 235.407 207.577 235.187C207.067 234.967 206.516 234.856 205.96 234.862L181.18 235.501C180.975 235.509 180.77 235.534 180.569 235.577C180.026 235.678 179.51 235.894 179.058 236.211C178.605 236.528 178.225 236.938 177.945 237.414C177.664 237.89 177.488 238.42 177.43 238.969C177.371 239.518 177.431 240.074 177.606 240.598L181.912 272.201ZM208.165 245.582L209.787 239.779C209.971 239.108 209.976 238.401 209.799 237.729C209.878 237.728 209.947 237.691 210.026 237.691C211.138 237.668 212.214 238.086 213.018 238.855C213.822 239.623 214.288 240.679 214.314 241.79C214.34 242.901 213.924 243.977 213.157 244.782C212.39 245.587 211.335 246.056 210.223 246.085C209.504 246.107 208.792 245.933 208.165 245.582Z" fill="#CCCCCC"/>
<path d="M180.569 235.577C181.097 238.593 187.033 240.713 194.169 240.344C200.732 240.042 206.098 237.74 207.081 235.011C206.718 234.904 206.339 234.853 205.96 234.862L181.181 235.501C180.975 235.509 180.771 235.534 180.569 235.577Z" fill="#3F3D56"/>
</g>
<defs>
<clipPath id="clip0_1374_6">
<rect width="512" height="512" fill="white"/>
</clipPath>
</defs>
</svg>
